<svg xmlns="http://www.w3.org/2000/svg" width="600" height="590" viewBox="0 0 600 590" version="1.1">
	<path d="M 288.500 1.636 C 284.650 2.446, 277.279 5.147, 272.121 7.639 C 246.069 20.224, 230.072 49.699, 233.891 78.077 C 237.916 107.983, 258.133 130.477, 287.750 137.998 L 292 139.077 292 161.927 L 292 184.777 288.292 185.473 C 283.404 186.390, 273.270 191.030, 267.529 194.980 C 265.002 196.719, 260.293 200.857, 257.066 204.175 L 251.198 210.209 210.349 186.435 C 187.882 173.359, 165.813 160.484, 161.307 157.825 L 153.115 152.991 155.515 147.745 C 160.110 137.704, 161.467 130.464, 161.467 116 C 161.467 99.657, 160.088 93.738, 152.843 79 C 148.289 69.737, 146.551 67.375, 138.091 58.953 C 129.734 50.634, 127.149 48.735, 118 44.196 C 105.071 37.782, 98.503 36.013, 84.954 35.295 C 46.702 33.268, 12.809 58.187, 2.386 96 C -0.114 105.071, -0.114 126.929, 2.386 136 C 12.810 173.814, 46.709 198.737, 84.954 196.703 C 102.692 195.760, 119.414 189.395, 132.277 178.690 C 135.755 175.795, 138.714 174.060, 139.594 174.398 C 140.406 174.709, 163.591 188.097, 191.116 204.147 L 241.161 233.330 240.526 236.715 C 239.260 243.463, 239.929 257.457, 241.879 265 C 242.945 269.125, 243.521 272.787, 243.158 273.137 C 242.165 274.099, 174.486 309, 173.615 309 C 173.199 309, 170.749 307.221, 168.169 305.046 C 158.931 297.256, 143.957 292, 131 292 C 103.018 292, 78.243 312.289, 72.387 340 C 65.976 370.337, 84.740 400.592, 115.500 409.514 C 123.538 411.846, 138.528 411.867, 146.500 409.558 C 171.461 402.329, 188.744 381.051, 190.631 355.225 C 191.139 348.278, 189.730 337.516, 187.591 332 C 187.147 330.857, 195.436 326.146, 222.446 312.191 L 257.884 293.882 263.424 298.395 C 269.342 303.215, 280.785 309.125, 287.750 310.958 L 292 312.077 292 365.298 L 292 418.518 284.250 420.281 C 269.213 423.700, 251.588 433.995, 241.420 445.297 C 225.924 462.522, 218.664 481.081, 218.650 503.500 C 218.639 522.078, 222.709 535.971, 232.677 551.380 C 257.874 590.331, 312.147 601.673, 351.025 576.114 C 375.982 559.707, 389.975 533.767, 389.993 503.878 C 390.017 463.422, 363.231 429.581, 323.750 420.189 L 317 418.583 317 365.378 L 317 312.173 323.700 310.009 C 331.780 307.399, 335.018 305.806, 341.252 301.377 C 343.866 299.519, 346.282 298, 346.620 298 C 346.958 298, 361.813 307.337, 379.630 318.750 L 412.024 339.500 411.361 343.500 C 410.996 345.700, 410.721 351.600, 410.750 356.611 C 410.920 386.014, 429.632 411.673, 458.153 421.614 C 468.244 425.131, 484.512 425.977, 495.416 423.551 C 532.402 415.322, 556.112 378.507, 548.417 341.254 C 542.942 314.746, 521.844 293.329, 495.416 287.449 C 484.381 284.994, 468.156 285.823, 458.155 289.352 C 445.475 293.827, 434.743 301.226, 426.473 311.195 C 424.288 313.829, 421.926 315.772, 421.225 315.514 C 420.524 315.255, 406.916 306.679, 390.984 296.456 L 362.017 277.867 363.564 274.875 C 366.401 269.390, 368.999 256.879, 369.024 248.590 L 369.047 240.500 405.181 224.500 C 425.055 215.700, 442.822 207.888, 444.663 207.141 C 448.008 205.783, 448.018 205.788, 454.275 211.641 C 465.820 222.440, 477.775 229.058, 493.163 233.168 C 504.949 236.316, 523.065 236.304, 535 233.142 C 591.291 218.229, 617.335 154.113, 587.232 104.558 C 582.223 96.313, 570.140 83.907, 561.472 78.109 C 547.038 68.455, 531.799 63.995, 513.292 64.007 C 499.172 64.016, 488.460 66.569, 475.500 73.013 C 447.284 87.043, 429.954 113.475, 428.304 145 C 427.674 157.040, 428.999 167.321, 432.468 177.295 L 434.847 184.137 430.674 185.944 C 422.600 189.442, 362.493 216.205, 361.898 216.568 C 361.566 216.770, 359.867 214.731, 358.121 212.036 C 350.817 200.765, 334.861 189.200, 322.103 185.930 L 317 184.622 317 161.459 L 317 138.297 323.296 136.593 C 333.619 133.798, 343.544 127.680, 352.665 118.487 C 359.354 111.746, 361.649 108.563, 365.361 100.879 C 371.266 88.655, 373.498 77.831, 372.651 65.525 C 369.707 22.751, 330.310 -7.161, 288.500 1.636 M 295.094 26.090 C 281.831 28.392, 268.923 38.607, 262.715 51.712 C 259.675 58.131, 259.500 59.125, 259.500 70 C 259.500 80.879, 259.674 81.867, 262.722 88.302 C 267.009 97.354, 275.646 105.991, 284.698 110.278 C 291.133 113.326, 292.121 113.500, 303 113.500 C 313.837 113.500, 314.885 113.317, 321.180 110.335 C 347.821 97.714, 355.704 65.845, 337.990 42.373 C 328.692 30.053, 310.985 23.331, 295.094 26.090 M 67.645 61.522 C 47.849 66.524, 31.187 83.378, 26.537 103.103 C 18.002 139.313, 46.911 173.834, 84 171.721 C 114.059 170.009, 137 145.890, 137 116 C 137 91.978, 121.724 70.649, 99 62.942 C 90.623 60.101, 75.906 59.434, 67.645 61.522 M 497.500 90.870 C 478.595 96.312, 463.219 110.816, 456.274 129.758 C 452.949 138.828, 452.125 153.686, 454.409 163.376 C 461.871 195.033, 493.607 215.784, 525.088 209.592 C 573.451 200.080, 591.577 141.638, 556.951 106.862 C 550.971 100.857, 547.546 98.365, 540.923 95.202 C 536.290 92.990, 530.115 90.690, 527.201 90.090 C 519.326 88.470, 504.482 88.860, 497.500 90.870 M 296 209.317 C 279.882 212.981, 266.827 227.168, 265.082 242.917 C 263.096 260.842, 271.801 276.748, 287.725 284.291 C 293.949 287.239, 295.315 287.500, 304.521 287.500 C 313.796 287.500, 315.031 287.259, 321.110 284.266 C 339.246 275.338, 348.002 255.388, 342.146 236.336 C 336.171 216.894, 315.614 204.858, 296 209.317 M 466.500 312.877 C 454.234 317.305, 445.738 324.654, 440.530 335.342 C 429.162 358.672, 438.320 384.862, 461.802 396.174 C 467.568 398.951, 469.822 399.456, 478 399.801 C 485.843 400.132, 488.625 399.822, 493.946 398.024 C 512.734 391.678, 524.976 374.900, 524.976 355.500 C 524.976 336.096, 512.835 319.345, 494.228 313.077 C 486.265 310.394, 473.630 310.303, 466.500 312.877 M 121.929 318.304 C 101.490 324.099, 90.796 346.639, 99.432 365.722 C 103.118 373.867, 110.509 380.919, 118.525 383.940 C 126.474 386.936, 139.219 386.538, 145.892 383.086 C 160.661 375.447, 168.444 359.087, 164.546 343.875 C 160.590 328.431, 148.759 318.450, 133.218 317.443 C 129.348 317.192, 124.562 317.557, 121.929 318.304" stroke="none" fill="black" fill-rule="evenodd"/>
</svg>